<svg 
          width="11.3681640625" 
          height="13.243600845336914" fill="none" 
          xmlns="http://www.w3.org/2000/svg">
          <path d="M 7.316066741943359 0 C 7.344699407617251 0 7.372772380709647 0.0024107549875977425 7.400093714396158 0.007040227170010971 L 7.491333643595377 0.007599999872119932 C 7.627333641052245 0.007599999872119932 7.757333248853683 0.06293332878874472 7.851999918619791 0.16093333341393834 L 11.22866694132487 3.6789336381209874 C 11.318000276883442 3.77160030828261 11.368082682291666 3.8962670150279832 11.368082682291666 4.024933690335184 L 11.368082682291666 10.135600258713136 C 11.380000416189432 11.80826704764085 10.077333132425943 13.1749345428563 8.401999791463215 13.242934544849197 L 3.0560000737508135 13.243600845336914 L 2.9833332697550454 13.243600845336914 C 1.3500380516052246 13.20668657691887 0.0401082985724012 11.885746731739633 0.00020122062414884567 10.268386062206899 L 0 2.9936000353757515 C 0.03866666555404663 1.3395999915763457 1.4046667416890461 0.007599999872119932 3.0466667811075845 0.007599999872119932 L 7.23203976949056 0.007040227170010971 C 7.259361103177071 0.0024107549875977425 7.287434076269467 0 7.316066741943359 0 Z M 6.815999984741211 1.007333327014854 L 3.0480000178019204 1.007600037944813 C 1.943333387374878 1.007600037944813 1.0260000005364418 1.902266752647827 1 3.0056001198751767 L 1 10.135600258713136 C 0.9753333330154419 11.277600352955442 1.8753332297007241 12.218267463595206 3.0059998830159502 12.243600797330114 L 8.381999969482422 12.243600797330114 C 9.494666655858358 12.197600796274157 10.37600007218619 11.272933388518345 10.368054072062174 10.139599968988158 L 10.368000030517578 4.655333742469603 L 9.028066635131836 4.656000360848773 C 7.8080666065216064 4.652667027429922 6.816066741943359 3.658000247452346 6.816066741943359 2.4393335559778855 L 6.815999984741211 1.007333327014854 Z M 7.1915334065755205 8.405400361809004 C 7.4675334095954895 8.405400361809004 7.6915334065755205 8.629400369542559 7.6915334065755205 8.905400385812404 C 7.6915334065755205 9.18140040208225 7.4675334095954895 9.405400409815806 7.1915334065755205 9.405400409815806 L 3.591533342997233 9.405400409815806 C 3.3155333399772644 9.405400409815806 3.091533342997233 9.18140040208225 3.091533342997233 8.905400385812404 C 3.091533342997233 8.629400369542559 3.3155333399772644 8.405400361809004 3.591533342997233 8.405400361809004 L 7.1915334065755205 8.405400361809004 Z M 5.828266779581705 5.904066369250755 C 6.104266782601674 5.904066369250755 6.328266779581705 6.128066376984309 6.328266779581705 6.404066393254155 C 6.328266779581705 6.6800664095240005 6.104266782601674 6.904066417257555 5.828266779581705 6.904066417257555 L 3.5909334818522134 6.904066417257555 C 3.314933478832245 6.904066417257555 3.0909334818522134 6.6800664095240005 3.0909334818522134 6.404066393254155 C 3.0909334818522134 6.128066376984309 3.314933478832245 5.904066369250755 3.5909334818522134 5.904066369250755 L 5.828266779581705 5.904066369250755 Z M 7.815999984741211 1.568000074003098 L 7.816066741943359 2.4393335559778855 C 7.816066741943359 3.108666887111494 8.360733191172281 3.6540003127285736 9.029399871826172 3.656000312841972 L 9.819999694824219 3.6553336944628017 L 7.815999984741211 1.568000074003098 Z" fill="rgb(242.00000077486038,100.00000163912773,64.00000378489494)"/>
        </svg>